<svg id="Layer_1" data-name="Layer 1" xmlns="http://www.w3.org/2000/svg" viewBox="0 0 1000 1000"><defs><style>.cls-1{fill:#15a1db;}</style></defs><g id="g10"><path id="path8" class="cls-1" d="M500.08,736.2c-129.54,0-234.54-105-234.54-234.54C265.39,372,370.38,267,500.08,267c129.54,0,234.53,105,234.53,234.53S629.62,736.2,500.08,736.2ZM499.92,244c-141.73,0-257,114.81-257,255.91,0,141.26,115.29,256.07,257,256.07S757.1,641.18,757.1,500.08C757.1,358.82,641.81,244,499.92,244Z"/></g><path id="path12" class="cls-1" d="M434.83,614.89c-38.8-18.21-65.72-59.38-65.72-107a120.24,120.24,0,0,1,20.27-67.46l84.57,126H525.1l84.57-126a120.62,120.62,0,0,1,20.27,67.46c0,44.5-23.44,83.14-58,103.09l16.31,62.4a192.51,192.51,0,0,0,10.13-336.68L500.24,488.2,403,336a192.48,192.48,0,0,0,15.84,340.63Z"/></svg>